<svg width="32" height="30" viewBox="0 0 32 30" fill="none" xmlns="http://www.w3.org/2000/svg">
<path d="M0.9375 15.9375C1.45525 15.9375 1.875 15.5178 1.875 15V14.0625H3.75V19.6875H2.8125C2.29475 19.6875 1.875 20.1073 1.875 20.625C1.875 21.1427 2.29475 21.5625 2.8125 21.5625H6.5625C7.08025 21.5625 7.5 21.1427 7.5 20.625C7.5 20.1073 7.08025 19.6875 6.5625 19.6875H5.625V14.0625H7.5V15C7.5 15.5178 7.91975 15.9375 8.4375 15.9375C8.95525 15.9375 9.375 15.5178 9.375 15V13.125C9.375 12.6072 8.95525 12.1875 8.4375 12.1875H0.9375C0.41975 12.1875 0 12.6072 0 13.125V15C0 15.5178 0.41975 15.9375 0.9375 15.9375Z" fill="#0F73F6"/>
<path d="M10.375 10.3125C10.8928 10.3125 11.3125 9.89275 11.3125 9.375V8.4375H14.125V19.6875H13.1875C12.6697 19.6875 12.25 20.1073 12.25 20.625C12.25 21.1427 12.6697 21.5625 13.1875 21.5625H16.9375C17.4552 21.5625 17.875 21.1427 17.875 20.625C17.875 20.1073 17.4552 19.6875 16.9375 19.6875H16V8.4375H18.8125V9.375C18.8125 9.89275 19.2323 10.3125 19.75 10.3125C20.2677 10.3125 20.6875 9.89275 20.6875 9.375V7.5C20.6875 6.98225 20.2677 6.5625 19.75 6.5625H10.375C9.85725 6.5625 9.4375 6.98225 9.4375 7.5V9.375C9.4375 9.89275 9.85725 10.3125 10.375 10.3125Z" fill="#0F73F6"/>
<path d="M31.0625 0.9375H19.8125C19.2947 0.9375 18.875 1.35725 18.875 1.875V3.75C18.875 4.26775 19.2947 4.6875 19.8125 4.6875C20.3303 4.6875 20.75 4.26775 20.75 3.75V2.8125H24.5V19.6875H23.5625C23.0448 19.6875 22.625 20.1073 22.625 20.625C22.625 21.1427 23.0448 21.5625 23.5625 21.5625H27.3125C27.8302 21.5625 28.25 21.1427 28.25 20.625C28.25 20.1073 27.8302 19.6875 27.3125 19.6875H26.375V2.8125H30.125V3.75C30.125 4.26775 30.5448 4.6875 31.0625 4.6875C31.5802 4.6875 32 4.26775 32 3.75V1.875C32 1.35725 31.5802 0.9375 31.0625 0.9375Z" fill="#0F73F6"/>
<path d="M31.0625 23.4375C30.5448 23.4375 30.125 23.8572 30.125 24.375V25.3125H1.875V24.375C1.875 23.8572 1.45525 23.4375 0.9375 23.4375C0.41975 23.4375 0 23.8572 0 24.375V28.125C0 28.6427 0.41975 29.0625 0.9375 29.0625C1.45525 29.0625 1.875 28.6427 1.875 28.125V27.1875H30.125V28.125C30.125 28.6427 30.5448 29.0625 31.0625 29.0625C31.5802 29.0625 32 28.6427 32 28.125V24.375C32 23.8572 31.5802 23.4375 31.0625 23.4375Z" fill="#0F73F6"/>
</svg>
