<svg width="16" height="18" viewBox="0 0 16 18" fill="none" xmlns="http://www.w3.org/2000/svg">
<path d="M2.16659 5.45831C2.05153 5.45831 1.95825 5.55159 1.95825 5.66665V16.5C1.95825 16.6151 2.05153 16.7083 2.16659 16.7083H13.8333C13.9483 16.7083 14.0416 16.6151 14.0416 16.5V5.66665C14.0416 5.55159 13.9483 5.45831 13.8333 5.45831H2.16659ZM0.708252 5.66665C0.708252 4.86123 1.36117 4.20831 2.16659 4.20831H13.8333C14.6387 4.20831 15.2916 4.86123 15.2916 5.66665V16.5C15.2916 17.3054 14.6387 17.9583 13.8333 17.9583H2.16659C1.36117 17.9583 0.708252 17.3054 0.708252 16.5V5.66665Z" fill="white"/>
<path d="M7.99992 1.29166C6.73425 1.29166 5.70825 2.31767 5.70825 3.58332V6.49999C5.70825 6.84517 5.42843 7.12499 5.08325 7.12499C4.73808 7.12499 4.45825 6.84517 4.45825 6.49999V3.58332C4.45825 1.62731 6.04391 0.0416565 7.99992 0.0416565C9.95592 0.0416565 11.5416 1.62731 11.5416 3.58332V6.49999C11.5416 6.84517 11.2618 7.12499 10.9166 7.12499C10.5714 7.12499 10.2916 6.84517 10.2916 6.49999V3.58332C10.2916 2.31767 9.26559 1.29166 7.99992 1.29166Z" fill="white"/>
</svg>
