<svg width="0" height="0" class="hidden">
  <symbol fill="none" xmlns="http://www.w3.org/2000/svg" viewBox="0 0 16 18" id="cart">
    <path d="M2.16659 5.45831C2.05153 5.45831 1.95825 5.55159 1.95825 5.66665V16.5C1.95825 16.6151 2.05153 16.7083 2.16659 16.7083H13.8333C13.9483 16.7083 14.0416 16.6151 14.0416 16.5V5.66665C14.0416 5.55159 13.9483 5.45831 13.8333 5.45831H2.16659ZM0.708252 5.66665C0.708252 4.86123 1.36117 4.20831 2.16659 4.20831H13.8333C14.6387 4.20831 15.2916 4.86123 15.2916 5.66665V16.5C15.2916 17.3054 14.6387 17.9583 13.8333 17.9583H2.16659C1.36117 17.9583 0.708252 17.3054 0.708252 16.5V5.66665Z" fill="currentColor"></path>
    <path d="M7.99992 1.29166C6.73425 1.29166 5.70825 2.31767 5.70825 3.58332V6.49999C5.70825 6.84517 5.42843 7.12499 5.08325 7.12499C4.73808 7.12499 4.45825 6.84517 4.45825 6.49999V3.58332C4.45825 1.62731 6.04391 0.0416565 7.99992 0.0416565C9.95592 0.0416565 11.5416 1.62731 11.5416 3.58332V6.49999C11.5416 6.84517 11.2618 7.12499 10.9166 7.12499C10.5714 7.12499 10.2916 6.84517 10.2916 6.49999V3.58332C10.2916 2.31767 9.26559 1.29166 7.99992 1.29166Z" fill="currentColor"></path>
  </symbol>
  <symbol fill="none" xmlns="http://www.w3.org/2000/svg" viewBox="0 0 20 20" id="profile">
    <g clip-path="url(#clip0_28_1069)">
      <path d="M17.0711 12.9289C15.9819 11.8398 14.6855 11.0335 13.2711 10.5454C14.786 9.50199 15.7812 7.75578 15.7812 5.78125C15.7812 2.59348 13.1878 0 10 0C6.81223 0 4.21875 2.59348 4.21875 5.78125C4.21875 7.75578 5.21402 9.50199 6.72898 10.5454C5.31453 11.0335 4.01813 11.8398 2.92895 12.9289C1.0402 14.8177 0 17.3289 0 20H1.5625C1.5625 15.3475 5.34754 11.5625 10 11.5625C14.6525 11.5625 18.4375 15.3475 18.4375 20H20C20 17.3289 18.9598 14.8177 17.0711 12.9289ZM10 10C7.67379 10 5.78125 8.1075 5.78125 5.78125C5.78125 3.455 7.67379 1.5625 10 1.5625C12.3262 1.5625 14.2188 3.455 14.2188 5.78125C14.2188 8.1075 12.3262 10 10 10Z" fill="currentColor"></path>
    </g>
    <defs>
      <clipPath id="clip0_28_1069">
        <rect width="20" height="20" fill="white"></rect>
      </clipPath>
    </defs>
  </symbol>
  <symbol fill="none" xmlns="http://www.w3.org/2000/svg" viewBox="0 0 24 24" id="arrow-left">
    <path d="M7.49995 12C7.49995 12.1918 7.57326 12.3838 7.7197 12.5302L15.2197 20.0302C15.5128 20.3233 15.9873 20.3233 16.2802 20.0302C16.5731 19.7371 16.5733 19.2626 16.2802 18.9697L9.31045 12L16.2802 5.0302C16.5733 4.73714 16.5733 4.26258 16.2802 3.9697C15.9871 3.67682 15.5126 3.67664 15.2197 3.9697L7.7197 11.4697C7.57326 11.6161 7.49995 11.8081 7.49995 12Z" fill="currentColor"></path>
  </symbol>
  <symbol fill="none" xmlns="http://www.w3.org/2000/svg" viewBox="0 0 24 24" id="arrow-right">
    <path d="M16.5 12C16.5 12.1918 16.4267 12.3838 16.2803 12.5302L8.7803 20.0302C8.48723 20.3233 8.01267 20.3233 7.7198 20.0302C7.42692 19.7371 7.42673 19.2626 7.7198 18.9697L14.6895 12L7.7198 5.0302C7.42673 4.73714 7.42673 4.26258 7.7198 3.9697C8.01286 3.67682 8.48742 3.67664 8.7803 3.9697L16.2803 11.4697C16.4267 11.6161 16.5 11.8081 16.5 12Z" fill="currentColor"></path>
  </symbol>
</svg>