<svg width="0" height="0" class="hidden">
  <symbol fill="none" xmlns="http://www.w3.org/2000/svg" viewBox="0 0 16 18" id="cart">
    <path d="M2.16659 5.45831C2.05153 5.45831 1.95825 5.55159 1.95825 5.66665V16.5C1.95825 16.6151 2.05153 16.7083 2.16659 16.7083H13.8333C13.9483 16.7083 14.0416 16.6151 14.0416 16.5V5.66665C14.0416 5.55159 13.9483 5.45831 13.8333 5.45831H2.16659ZM0.708252 5.66665C0.708252 4.86123 1.36117 4.20831 2.16659 4.20831H13.8333C14.6387 4.20831 15.2916 4.86123 15.2916 5.66665V16.5C15.2916 17.3054 14.6387 17.9583 13.8333 17.9583H2.16659C1.36117 17.9583 0.708252 17.3054 0.708252 16.5V5.66665Z" fill="currentColor"></path>
    <path d="M7.99992 1.29166C6.73425 1.29166 5.70825 2.31767 5.70825 3.58332V6.49999C5.70825 6.84517 5.42843 7.12499 5.08325 7.12499C4.73808 7.12499 4.45825 6.84517 4.45825 6.49999V3.58332C4.45825 1.62731 6.04391 0.0416565 7.99992 0.0416565C9.95592 0.0416565 11.5416 1.62731 11.5416 3.58332V6.49999C11.5416 6.84517 11.2618 7.12499 10.9166 7.12499C10.5714 7.12499 10.2916 6.84517 10.2916 6.49999V3.58332C10.2916 2.31767 9.26559 1.29166 7.99992 1.29166Z" fill="currentColor"></path>
  </symbol>
  <symbol fill="none" xmlns="http://www.w3.org/2000/svg" viewBox="0 0 20 20" id="profile">
    <g clip-path="url(#clip0_28_1069)">
      <path d="M17.0711 12.9289C15.9819 11.8398 14.6855 11.0335 13.2711 10.5454C14.786 9.50199 15.7812 7.75578 15.7812 5.78125C15.7812 2.59348 13.1878 0 10 0C6.81223 0 4.21875 2.59348 4.21875 5.78125C4.21875 7.75578 5.21402 9.50199 6.72898 10.5454C5.31453 11.0335 4.01813 11.8398 2.92895 12.9289C1.0402 14.8177 0 17.3289 0 20H1.5625C1.5625 15.3475 5.34754 11.5625 10 11.5625C14.6525 11.5625 18.4375 15.3475 18.4375 20H20C20 17.3289 18.9598 14.8177 17.0711 12.9289ZM10 10C7.67379 10 5.78125 8.1075 5.78125 5.78125C5.78125 3.455 7.67379 1.5625 10 1.5625C12.3262 1.5625 14.2188 3.455 14.2188 5.78125C14.2188 8.1075 12.3262 10 10 10Z" fill="currentColor"></path>
    </g>
    <defs>
      <clipPath id="clip0_28_1069">
        <rect width="20" height="20" fill="white"></rect>
      </clipPath>
    </defs>
  </symbol>
  <symbol fill="none" xmlns="http://www.w3.org/2000/svg" viewBox="0 0 24 24" id="arrow-left">
    <path d="M7.49995 12C7.49995 12.1918 7.57326 12.3838 7.7197 12.5302L15.2197 20.0302C15.5128 20.3233 15.9873 20.3233 16.2802 20.0302C16.5731 19.7371 16.5733 19.2626 16.2802 18.9697L9.31045 12L16.2802 5.0302C16.5733 4.73714 16.5733 4.26258 16.2802 3.9697C15.9871 3.67682 15.5126 3.67664 15.2197 3.9697L7.7197 11.4697C7.57326 11.6161 7.49995 11.8081 7.49995 12Z" fill="currentColor"></path>
  </symbol>
  <symbol fill="none" xmlns="http://www.w3.org/2000/svg" viewBox="0 0 24 24" id="arrow-right">
    <path d="M16.5 12C16.5 12.1918 16.4267 12.3838 16.2803 12.5302L8.7803 20.0302C8.48723 20.3233 8.01267 20.3233 7.7198 20.0302C7.42692 19.7371 7.42673 19.2626 7.7198 18.9697L14.6895 12L7.7198 5.0302C7.42673 4.73714 7.42673 4.26258 7.7198 3.9697C8.01286 3.67682 8.48742 3.67664 8.7803 3.9697L16.2803 11.4697C16.4267 11.6161 16.5 11.8081 16.5 12Z" fill="currentColor"></path>
  </symbol>
    <symbol fill="none" xmlns="http://www.w3.org/2000/svg" viewBox="0 0 16 16" id="down-arrow">
    <path d="M7.87504 11.5C7.7152 11.5 7.5552 11.4389 7.43316 11.3169L1.18316 5.06691C0.938945 4.8227 0.938945 4.42723 1.18316 4.18316C1.42738 3.9391 1.82285 3.93895 2.06691 4.18316L7.87504 9.99129L13.6832 4.18316C13.9274 3.93895 14.3229 3.93895 14.5669 4.18316C14.811 4.42738 14.8111 4.82285 14.5669 5.06691L8.31692 11.3169C8.19488 11.4389 8.03488 11.5 7.87504 11.5Z" fill="currentColor"></path>
  </symbol>
  <symbol fill="none" xmlns="http://www.w3.org/2000/svg" viewBox="0 0 24 24" id="right-arrow">
    <path d="M15.625 11.75C15.625 11.5902 15.5639 11.4302 15.4419 11.3082L9.19191 5.05816C8.9477 4.81395 8.55223 4.81395 8.30816 5.05816C8.0641 5.30238 8.06395 5.69785 8.30816 5.94191L14.1163 11.75L8.30816 17.5582C8.06395 17.8024 8.06395 18.1979 8.30816 18.4419C8.55238 18.686 8.94785 18.6861 9.19191 18.4419L15.4419 12.1919C15.5639 12.0699 15.625 11.9099 15.625 11.75Z" fill="currentColor"></path>
  </symbol>
  <symbol fill="none" xmlns="http://www.w3.org/2000/svg" viewBox="0 0 16 16" id="up-arrow">
    <path d="M7.87504 3.99999C7.7152 3.99999 7.5552 4.06109 7.43316 4.18312L1.18316 10.4331C0.938945 10.6773 0.938945 11.0728 1.18316 11.3169C1.42738 11.5609 1.82285 11.5611 2.06691 11.3169L7.87504 5.50874L13.6832 11.3169C13.9274 11.5611 14.3229 11.5611 14.5669 11.3169C14.811 11.0726 14.8111 10.6772 14.5669 10.4331L8.31692 4.18312C8.19488 4.06109 8.03488 3.99999 7.87504 3.99999Z" fill="currentColor"></path>
  </symbol>
    <symbol fill="none" xmlns="http://www.w3.org/2000/svg" viewBox="0 0 150 150" id="product-3">
    <path d="M72.3712 62.0563H50.2266V39.8555" stroke="currentColor" stroke-width="3.5" stroke-miterlimit="10" stroke-linecap="round" stroke-linejoin="round"></path>
    <path d="M146.777 6.33514H3.22266V22.0849H146.777V6.33514Z" stroke="currentColor" stroke-width="3.5" stroke-miterlimit="10" stroke-linecap="round" stroke-linejoin="round"></path>
    <path d="M10.7754 99.8558V24.2596" stroke="currentColor" stroke-width="3.5" stroke-miterlimit="10" stroke-linecap="round" stroke-linejoin="round"></path>
    <path d="M139.225 24.2596V99.8558" stroke="currentColor" stroke-width="3.5" stroke-miterlimit="10" stroke-linecap="round" stroke-linejoin="round"></path>
    <path d="M75 120.111V125.603" stroke="currentColor" stroke-width="3.5" stroke-miterlimit="10" stroke-linecap="round" stroke-linejoin="round"></path>
    <path d="M74.9997 143.665C79.5494 143.665 83.2377 139.968 83.2377 135.407C83.2377 130.847 79.5494 127.15 74.9997 127.15C70.45 127.15 66.7617 130.847 66.7617 135.407C66.7617 139.968 70.45 143.665 74.9997 143.665Z" stroke="currentColor" stroke-width="3.5" stroke-miterlimit="10" stroke-linecap="round" stroke-linejoin="round"></path>
    <path d="M50.2284 86.8875C63.9093 86.8875 74.9998 75.7706 74.9998 62.0572C74.9998 48.3438 63.9093 37.2269 50.2284 37.2269C36.5476 37.2269 25.457 48.3438 25.457 62.0572C25.457 75.7706 36.5476 86.8875 50.2284 86.8875Z" stroke="currentColor" stroke-width="3.5" stroke-miterlimit="10" stroke-linecap="round" stroke-linejoin="round"></path>
    <path d="M121.523 37.2269H89.584V56.8034H121.523V37.2269Z" stroke="currentColor" stroke-width="3.5" stroke-miterlimit="10" stroke-linecap="round" stroke-linejoin="round"></path>
    <path d="M89.584 70.4118H121.523" stroke="currentColor" stroke-width="3.5" stroke-miterlimit="10" stroke-linecap="round" stroke-linejoin="round"></path>
    <path d="M89.584 83.3724H121.523" stroke="currentColor" stroke-width="3.5" stroke-miterlimit="10" stroke-linecap="round" stroke-linejoin="round"></path>
    <path d="M146.777 102.03H3.22266V117.78H146.777V102.03Z" stroke="currentColor" stroke-width="3.5" stroke-miterlimit="10" stroke-linecap="round" stroke-linejoin="round"></path>
  </symbol>
  <symbol fill="none" xmlns="http://www.w3.org/2000/svg" viewBox="0 0 150 150" id="product-4">
    <path d="M75 60.9375V89.0625" stroke="currentColor" stroke-width="3.5" stroke-miterlimit="10" stroke-linecap="round" stroke-linejoin="round"></path>
    <path d="M65.625 60.9375H84.375" stroke="currentColor" stroke-width="3.5" stroke-miterlimit="10" stroke-linecap="round" stroke-linejoin="round"></path>
    <path d="M107.812 107.812H42.1875V42.1875H107.812V107.812Z" stroke="currentColor" stroke-width="3.5" stroke-miterlimit="10" stroke-linecap="round" stroke-linejoin="round"></path>
    <mask id="mask0_4_6726" maskUnits="userSpaceOnUse" x="0" y="0" width="150" height="150">
      <path d="M0 1.52588e-05H150V150H0V1.52588e-05Z" fill="white"></path>
    </mask>
    <g mask="url(#mask0_4_6726)">
      <path d="M23.4375 23.4375H4.39453V4.39453H23.4375V23.4375Z" stroke="currentColor" stroke-width="3.5" stroke-miterlimit="10" stroke-linecap="round" stroke-linejoin="round"></path>
      <path d="M23.4375 145.605H4.39453V126.563H23.4375V145.605Z" stroke="currentColor" stroke-width="3.5" stroke-miterlimit="10" stroke-linecap="round" stroke-linejoin="round"></path>
      <path d="M145.605 145.605H126.562V126.563H145.605V145.605Z" stroke="currentColor" stroke-width="3.5" stroke-miterlimit="10" stroke-linecap="round" stroke-linejoin="round"></path>
      <path d="M14.0625 23.4375V126.562" stroke="currentColor" stroke-width="3.5" stroke-miterlimit="10" stroke-linecap="round" stroke-linejoin="round"></path>
      <path d="M126.562 23.4375H145.605V4.39453H126.562V23.4375Z" stroke="currentColor" stroke-width="3.5" stroke-miterlimit="10" stroke-linecap="round" stroke-linejoin="round"></path>
      <path d="M135.938 42.1875V51.5625" stroke="currentColor" stroke-width="3.5" stroke-miterlimit="10" stroke-linecap="round" stroke-linejoin="round"></path>
      <path d="M135.938 70.3125V79.6875" stroke="currentColor" stroke-width="3.5" stroke-miterlimit="10" stroke-linecap="round" stroke-linejoin="round"></path>
      <path d="M135.938 98.4375V107.812" stroke="currentColor" stroke-width="3.5" stroke-miterlimit="10" stroke-linecap="round" stroke-linejoin="round"></path>
      <path d="M23.4375 14.0625H126.562" stroke="currentColor" stroke-width="3.5" stroke-miterlimit="10" stroke-linecap="round" stroke-linejoin="round"></path>
      <path d="M107.812 135.938H98.4375" stroke="currentColor" stroke-width="3.5" stroke-miterlimit="10" stroke-linecap="round" stroke-linejoin="round"></path>
      <path d="M79.6875 135.938H70.3125" stroke="currentColor" stroke-width="3.5" stroke-miterlimit="10" stroke-linecap="round" stroke-linejoin="round"></path>
      <path d="M51.5625 135.938H42.1875" stroke="currentColor" stroke-width="3.5" stroke-miterlimit="10" stroke-linecap="round" stroke-linejoin="round"></path>
    </g>
  </symbol>
  <symbol fill="none" xmlns="http://www.w3.org/2000/svg" viewBox="0 0 150 150" id="product-5">
    <path d="M9.08203 79.8255H18.6349C23.8957 79.8255 28.1604 75.5608 28.1604 70.3C28.1604 65.0391 32.4252 60.7744 37.686 60.7744H50.6408C58.8478 60.7744 65.5008 54.1213 65.5008 45.9144C65.5008 37.7075 58.8478 31.0544 50.6408 31.0544" stroke="currentColor" stroke-width="3.5" stroke-miterlimit="10" stroke-linejoin="round"></path>
    <path d="M105.51 114.551C117.96 114.551 128.053 104.458 128.053 92.0078C128.053 82.3946 122.036 74.1868 113.562 70.9454" stroke="currentColor" stroke-width="3.5" stroke-miterlimit="10" stroke-linejoin="round"></path>
    <path d="M94.408 69.465H70.1549C65.2916 69.465 61.3491 73.4074 61.3491 78.2707C61.3491 83.134 57.4066 87.0765 52.5434 87.0765H51.237C43.6503 87.0765 37.5 93.2268 37.5 100.813C37.4997 108.401 43.65 114.551 51.2367 114.551" stroke="currentColor" stroke-width="3.5" stroke-miterlimit="10" stroke-linejoin="round"></path>
    <path d="M92.963 114.551V120.996C92.963 124.556 90.0772 127.441 86.5177 127.441H63.4824C59.9229 127.441 57.0371 124.556 57.0371 120.996V114.551" stroke="currentColor" stroke-width="3.5" stroke-miterlimit="10" stroke-linejoin="round"></path>
    <path d="M118.117 65.2964L103.066 54.7577" stroke="currentColor" stroke-width="3.5" stroke-miterlimit="10" stroke-linejoin="round"></path>
    <path d="M133.887 140.332H16.1133C8.99385 140.332 3.22266 134.561 3.22266 127.441V114.551H146.777V127.441C146.777 134.561 141.006 140.332 133.887 140.332Z" stroke="currentColor" stroke-width="3.5" stroke-miterlimit="10" stroke-linecap="round" stroke-linejoin="round"></path>
    <path d="M95.6289 69.3618C98.8492 61.6342 104.445 51.7046 111.636 41.434C125.93 21.0211 141.114 6.99202 145.551 10.099C149.988 13.2059 141.998 32.2726 127.705 52.6855C120.488 62.9924 113.044 71.6719 106.871 77.3397" stroke="currentColor" stroke-width="3.5" stroke-miterlimit="10" stroke-linecap="round" stroke-linejoin="round"></path>
    <path d="M83.4253 84.0279C84.2717 88.3743 83.2284 92.6432 80.875 95.9942C89.3099 99.397 99.2289 96.8655 104.93 89.3945C109.201 83.7976 108.195 75.7005 102.424 71.6687C96.8945 67.8059 89.28 69.1518 85.4102 74.6783C83.4288 77.5081 82.8133 80.8855 83.4253 84.0279Z" stroke="currentColor" stroke-width="3.5" stroke-miterlimit="10" stroke-linecap="round" stroke-linejoin="round"></path>
    <path d="M140.918 114.551V42.7734C140.918 40.1089 140.029 37.6521 138.531 35.6836" stroke="currentColor" stroke-width="3.5" stroke-miterlimit="10" stroke-linejoin="round"></path>
    <path d="M119.241 31.0547H20.8008C14.3288 31.0547 9.08203 36.3015 9.08203 42.7734V114.551" stroke="currentColor" stroke-width="3.5" stroke-miterlimit="10" stroke-linejoin="round"></path>
  </symbol>
  <symbol fill="none" xmlns="http://www.w3.org/2000/svg" viewBox="0 0 150 150" id="product-1">
    <mask id="mask0_4_6669" maskUnits="userSpaceOnUse" x="0" y="0" width="150" height="150">
      <path d="M0 1.52588e-05H150V150H0V1.52588e-05Z" fill="white"></path>
    </mask>
    <g mask="url(#mask0_4_6669)">
      <path d="M42.2761 143.038H100.118C100.915 143.038 101.58 142.382 101.58 141.576V138.146C101.58 135.447 99.3707 133.246 96.6798 133.246H45.7059C43.0152 133.246 40.8145 135.447 40.8145 138.146V141.576C40.8145 142.382 41.4704 143.038 42.2761 143.038Z" stroke="currentColor" stroke-width="3.5" stroke-miterlimit="10" stroke-linecap="round" stroke-linejoin="round"></path>
      <path d="M51.7344 133.246L55.6461 120.166M86.7468 120.166L90.65 133.246" stroke="currentColor" stroke-width="3.5" stroke-miterlimit="10" stroke-linecap="round" stroke-linejoin="round"></path>
      <path d="M18.1582 109.054H112.823" stroke="currentColor" stroke-width="3.5" stroke-miterlimit="10" stroke-linecap="round" stroke-linejoin="round"></path>
      <path d="M2.19727 81.6399C2.19727 83.766 3.93281 85.5097 6.05889 85.5097H93.1664C95.2925 85.5097 97.028 83.766 97.028 81.6399V10.8241C97.028 8.69799 95.2925 6.96245 93.1664 6.96245H6.05889C3.93281 6.96245 2.19727 8.69799 2.19727 10.8241V81.6399Z" stroke="currentColor" stroke-width="3.5" stroke-miterlimit="10" stroke-linecap="round" stroke-linejoin="round"></path>
      <path d="M66.126 120.166H22.161C19.9603 120.166 18.1582 118.364 18.1582 116.163V85.5097M112.823 120.166H76.2328M97.0277 46.5932H120.231C122.431 46.5932 124.234 48.3952 124.234 50.596V90.6006" stroke="currentColor" stroke-width="3.5" stroke-miterlimit="10" stroke-linecap="round" stroke-linejoin="round"></path>
      <path d="M54.6911 27.4587H97.0283M2.19727 27.4587H44.5427" stroke="currentColor" stroke-width="3.5" stroke-miterlimit="10" stroke-linecap="round" stroke-linejoin="round"></path>
      <path d="M85.4102 17.2022V17.2189" stroke="currentColor" stroke-width="3.5" stroke-miterlimit="10" stroke-linecap="round" stroke-linejoin="round"></path>
      <path d="M74.5469 17.2022V17.2189" stroke="currentColor" stroke-width="3.5" stroke-miterlimit="10" stroke-linecap="round" stroke-linejoin="round"></path>
      <path d="M63.6855 17.2022V17.2189" stroke="currentColor" stroke-width="3.5" stroke-miterlimit="10" stroke-linecap="round" stroke-linejoin="round"></path>
      <path d="M13.8164 17.2022L36.3056 17.2189" stroke="currentColor" stroke-width="3.5" stroke-miterlimit="10" stroke-linecap="round" stroke-linejoin="round"></path>
      <path d="M84.2312 38.7783H51.6936C50.8797 38.7783 50.207 39.4428 50.207 40.2648V50.0731C50.207 50.8949 50.8797 51.5676 51.6936 51.5676H84.2312C85.0451 51.5676 85.7178 50.8949 85.7178 50.0731V40.2648C85.7178 39.4428 85.0451 38.7783 84.2312 38.7783Z" stroke="currentColor" stroke-width="3.5" stroke-miterlimit="10" stroke-linecap="round" stroke-linejoin="round"></path>
      <path d="M85.7175 63.7842H50.207" stroke="currentColor" stroke-width="3.5" stroke-miterlimit="10" stroke-linecap="round" stroke-linejoin="round"></path>
      <path d="M67.5388 74.1903H85.7175M50.207 74.1903H55.6299" stroke="currentColor" stroke-width="3.5" stroke-miterlimit="10" stroke-linecap="round" stroke-linejoin="round"></path>
      <path d="M130.313 134.251H130.238" stroke="currentColor" stroke-width="3.5" stroke-miterlimit="10" stroke-linecap="round" stroke-linejoin="round"></path>
      <path d="M116.869 143.038H143.751C145.976 143.038 147.804 141.219 147.804 138.985V94.6451C147.804 92.4195 145.976 90.6007 143.751 90.6007H116.869C114.643 90.6007 112.824 92.4195 112.824 94.6451V138.985C112.824 141.219 114.643 143.038 116.869 143.038Z" stroke="currentColor" stroke-width="3.5" stroke-miterlimit="10" stroke-linecap="round" stroke-linejoin="round"></path>
      <path d="M15.0028 38.7783H37.4006C38.2227 38.7783 38.8953 39.4428 38.8953 40.2648V72.6956C38.8953 73.5177 38.2227 74.1903 37.4006 74.1903H15.0028C14.1808 74.1903 13.5078 73.5177 13.5078 72.6956V40.2648C13.5078 39.4428 14.1808 38.7783 15.0028 38.7783Z" stroke="currentColor" stroke-width="3.5" stroke-miterlimit="10" stroke-linecap="round" stroke-linejoin="round"></path>
    </g>
  </symbol>
  <symbol fill="none" xmlns="http://www.w3.org/2000/svg" viewBox="0 0 150 150" id="product-2">
    <path fill-rule="evenodd" clip-rule="evenodd" d="M99.9754 98.7H73.6504C72.6754 98.7 71.9254 97.95 71.9254 96.975C71.9254 96.075 72.6754 95.25 73.6504 95.25H99.9754V82.5H95.9254H95.8504H95.7754H95.7004H95.5504L95.4004 82.425H95.2504H95.1004H95.0254L94.8754 82.35H94.7254L94.5754 82.275H94.5004H94.3504L94.2004 82.2L94.1254 82.125H93.9754C93.9004 82.05 93.8254 82.05 93.7504 81.975C93.6004 81.975 93.4504 81.9 93.3754 81.825C91.6504 80.925 90.5254 79.125 90.5254 77.025V49.95C90.5254 48.225 91.2754 46.725 92.4754 45.75L92.6254 45.675L92.7004 45.6L92.7754 45.525H92.8504L92.9254 45.45L93.0004 45.375H93.0754V45.3H93.1504L93.2254 45.225H93.3004L93.3754 45.15H93.4504L93.5254 45.075C94.2754 44.7 95.1004 44.475 95.9254 44.475H99.9754V41.925C99.9754 39.9 98.4004 38.325 96.3754 38.325H53.6254C51.6004 38.325 50.0254 39.9 50.0254 41.925V51.3H76.3504C77.3254 51.3 78.0754 52.05 78.0754 53.025C78.0754 53.925 77.3254 54.75 76.3504 54.75H50.0254V67.5H54.0754H54.1504H54.2254H54.3004H54.3754H54.4504L54.6004 67.575H54.7504H54.8254H54.9004H54.9754H55.0504L55.1254 67.65H55.2004H55.2754L55.4254 67.725H55.5004H55.6504V67.8H55.8004L55.8754 67.875H55.9504H56.0254L56.1754 67.95L56.2504 68.025H56.4004V68.1H56.4754H56.5504L56.6254 68.175L56.7754 68.25L56.8504 68.325L57.0004 68.4H57.0754L57.1504 68.475L57.2254 68.55L57.3004 68.625L57.3754 68.7L57.4504 68.775L57.6004 68.85H57.6754V68.925H57.7504V69H57.8254V69.075C57.9004 69.15 57.9754 69.225 58.1254 69.3V69.375L58.2754 69.525L58.3504 69.6L58.4254 69.675V69.75L58.5004 69.9L58.5754 69.975L58.6504 70.05C58.6504 70.125 58.7254 70.2 58.7254 70.275L58.8004 70.35L58.8754 70.425V70.5L58.9504 70.575V70.65L59.0254 70.725V70.875L59.1004 70.95C59.1004 71.025 59.1754 71.1 59.1754 71.1V71.175V71.25H59.2504V71.325V71.4V71.475V71.55C59.3254 71.55 59.3254 71.625 59.3254 71.7L59.4004 71.85V72V72.15V72.225L59.4754 72.375V72.525V72.675V72.825V72.975V96.825V100.05C59.4754 100.35 59.4754 100.65 59.4004 100.875C59.4004 101.025 59.4004 101.175 59.3254 101.25C59.3254 101.4 59.2504 101.55 59.2504 101.7L59.1754 101.775V101.85V101.925L59.1004 102.075C59.1004 102.15 59.0254 102.225 59.0254 102.3L58.9504 102.375V102.45L58.8754 102.525L58.8004 102.6V102.675L58.7254 102.75V102.825V102.9H58.6504V102.975L58.5754 103.05V103.125H58.5004V103.2H58.4254V103.275C58.3504 103.35 58.3504 103.35 58.3504 103.425L58.2004 103.5L58.1254 103.575V103.65C57.1504 104.775 55.6504 105.525 54.0754 105.525H50.0254V108.075C50.0254 110.1 51.6004 111.675 53.6254 111.675H96.3754C98.4004 111.675 99.9754 110.1 99.9754 108.075V98.7ZM58.6504 70.05C58.6504 70.125 58.7254 70.2 58.7254 70.275L58.6504 70.05ZM103.5 138.975H46.5004C42.0754 138.975 38.4754 135.375 38.4754 131.025V121.5V105.525H26.9254H26.7754L26.6254 105.45H26.5504H26.4004H26.2504H26.1004L25.9504 105.375H25.8754H25.8004H25.7254L25.5754 105.3C23.2504 104.7 21.5254 102.6 21.5254 100.05V72.975C21.5254 69.975 23.9254 67.5 26.9254 67.5H38.4754V28.5V18.975C38.4754 14.625 42.0754 11.025 46.5004 11.025H103.5C107.925 11.025 111.525 14.625 111.525 18.975V28.425V28.5V28.575V44.475H123.075C126.075 44.475 128.475 46.95 128.475 49.95V77.025C128.475 80.025 126.075 82.5 123.075 82.5H111.525V121.5V131.025C111.525 135.375 107.925 138.975 103.5 138.975ZM40.2004 102.075H44.7754L41.8504 99.15L41.7754 99.075L32.2504 89.55L24.9004 96.975V100.05V100.125V100.2V100.275V100.35L24.9754 100.425V100.5V100.575V100.65L25.0504 100.725V100.8V100.875H25.1254V100.95V101.025L25.2004 101.1V101.175H25.2754V101.25L25.3504 101.325L25.4254 101.4L25.5004 101.475L25.5754 101.55V101.625H25.6504L25.7254 101.7L25.8004 101.775H25.8754L25.9504 101.85H26.0254L26.1004 101.925H26.1754H26.2504V102H26.3254H26.4004H26.4754L26.5504 102.075H26.6254H26.7004H26.7754H26.8504H26.9254H40.2004ZM93.9754 77.325V77.4V77.475V77.55V77.625C94.0504 77.625 94.0504 77.7 94.0504 77.775V77.85H94.1254V77.925V78H94.2004V78.075L94.2754 78.15V78.225H94.3504V78.3L94.4254 78.375C94.5004 78.45 94.5004 78.525 94.5754 78.525V78.6C94.9504 78.9 95.4754 79.05 95.9254 79.05H101.7H101.775H109.8H109.875H123.075C124.2 79.05 125.1 78.15 125.1 77.025V49.95C125.1 48.825 124.2 47.925 123.075 47.925H95.9254C95.0254 47.925 94.2004 48.6 93.9754 49.425V49.5V49.575V49.65V49.725V49.8H93.9004V49.875V49.95V77.025V77.1V77.175H93.9754V77.25V77.325ZM41.9254 105.525V119.775H108.075V82.5H103.425V96.9V96.975V97.05V108.075C103.425 111.975 100.275 115.125 96.3754 115.125H53.6254C49.7254 115.125 46.5754 111.975 46.5754 108.075V105.525H41.9254ZM41.9254 123.225V131.025C41.9254 133.5 43.9504 135.6 46.5004 135.6H103.5C106.05 135.6 108.075 133.5 108.075 131.025V123.225H41.9254ZM103.425 44.475H108.075V30.225H41.9254V67.5H46.5754V41.925C46.5754 38.025 49.7254 34.875 53.6254 34.875H96.3754C100.275 34.875 103.425 38.025 103.425 41.925V44.475ZM108.075 26.775V18.975C108.075 16.5 106.05 14.4 103.5 14.4H89.1004V15.9C89.1004 18.675 86.8504 20.85 84.1504 20.85H65.8504C63.1504 20.85 60.9004 18.675 60.9004 15.9V14.4H46.5004C43.9504 14.4 41.9254 16.5 41.9254 18.975V26.775H108.075ZM64.3504 14.4V15.9C64.3504 16.8 65.0254 17.475 65.8504 17.475H84.1504C84.9754 17.475 85.6504 16.8 85.6504 15.9V14.4H64.3504ZM81.3754 131.1H68.0254C67.1254 131.1 66.3754 130.35 66.3754 129.375C66.3754 128.475 67.1254 127.725 68.0254 127.725H81.3754C82.3504 127.725 83.1004 128.475 83.1004 129.375C83.1004 130.35 82.3504 131.1 81.3754 131.1ZM49.5004 102.075H54.0754C55.1254 102.075 56.1004 101.175 56.1004 100.05V97.575L50.9254 92.4L45.4504 97.95L48.6004 101.1L49.2004 101.7H49.2754V101.775C49.3504 101.85 49.4254 101.925 49.5004 102.075ZM56.1004 92.7V72.975C56.1004 72.6 56.0254 72.3 55.8754 72.075C55.8004 72 55.8004 72 55.8004 71.925L55.7254 71.85V71.775H55.6504V71.7L55.5754 71.625V71.55H55.5004L55.4254 71.475L55.3504 71.4L55.2754 71.325H55.2004V71.25H55.1254L55.0504 71.175H54.9754V71.1H54.9004C54.6754 71.025 54.3754 70.95 54.0754 70.95H26.9254C25.8004 70.95 24.9004 71.85 24.9004 72.975V92.1L31.0504 85.95C31.7254 85.275 32.8504 85.275 33.4504 85.95L43.0504 95.475L49.7254 88.8C50.4004 88.125 51.5254 88.125 52.1254 88.8L56.1004 92.7ZM93.9754 82.125C93.9004 82.05 93.8254 82.05 93.7504 81.975L93.9754 82.125ZM43.5004 87.9C39.8254 87.9 36.8254 84.9 36.8254 81.225C36.8254 77.55 39.8254 74.55 43.5004 74.55C47.1754 74.55 50.1754 77.55 50.1754 81.225C50.1754 84.9 47.1754 87.9 43.5004 87.9ZM43.5004 77.925C41.7004 77.925 40.2004 79.425 40.2004 81.225C40.2004 83.025 41.7004 84.525 43.5004 84.525C45.3004 84.525 46.8004 83.025 46.8004 81.225C46.8004 79.425 45.3004 77.925 43.5004 77.925ZM119.25 57.3H108.375C107.475 57.3 106.65 56.55 106.65 55.575C106.65 54.675 107.475 53.85 108.375 53.85H119.25C120.15 53.85 120.9 54.675 120.9 55.575C120.9 56.55 120.15 57.3 119.25 57.3ZM102.9 57.3H99.8254C98.8504 57.3 98.1004 56.55 98.1004 55.575C98.1004 54.675 98.8504 53.85 99.8254 53.85H102.9C103.875 53.85 104.625 54.675 104.625 55.575C104.625 56.55 103.875 57.3 102.9 57.3ZM119.25 65.175H116.475C115.5 65.175 114.75 64.425 114.75 63.525C114.75 62.55 115.5 61.8 116.475 61.8H119.25C120.15 61.8 120.9 62.55 120.9 63.525C120.9 64.425 120.15 65.175 119.25 65.175ZM109.5 65.175H99.8254C98.8504 65.175 98.1004 64.425 98.1004 63.525C98.1004 62.55 98.8504 61.8 99.8254 61.8H109.5C110.4 61.8 111.225 62.55 111.225 63.525C111.225 64.425 110.4 65.175 109.5 65.175ZM119.25 73.125H110.85C109.95 73.125 109.125 72.375 109.125 71.4C109.125 70.5 109.95 69.675 110.85 69.675H119.25C120.15 69.675 120.9 70.5 120.9 71.4C120.9 72.375 120.15 73.125 119.25 73.125ZM103.725 73.125H99.8254C98.8504 73.125 98.1004 72.375 98.1004 71.4C98.1004 70.5 98.8504 69.675 99.8254 69.675H103.725C104.625 69.675 105.45 70.5 105.45 71.4C105.45 72.375 104.625 73.125 103.725 73.125Z" fill="currentColor"></path>
  </symbol>
    <symbol fill="none" xmlns="http://www.w3.org/2000/svg" viewBox="0 0 32 32" id="expand">
    <g clip-path="url(#clip0_58_4680)">
      <path d="M12.756 17.787L1.96899 28.575L2 22C2 21.448 1.552 21 1 21C0.448 21 0 21.448 0 22V31C0 31.296 0.121987 31.535 0.315974 31.699C0.496993 31.884 0.74902 32 1.02902 32H10C10.552 32 11 31.5521 11 31C11 30.448 10.552 30 10 30H3.37098L14.17 19.202L12.756 17.787ZM31.684 0.30102C31.503 0.116026 31.251 0 30.972 0H22C21.448 0 21 0.448 21 1C21 1.552 21.448 2 22 2H28.628L17.83 12.799L19.244 14.213L30.032 3.42499L30 10C30 10.552 30.448 11 31 11C31.552 11 32 10.552 32 10V1C32 0.704 31.878 0.465046 31.684 0.30102Z" fill="currentColor"></path>
    </g>
    <defs>
      <clipPath id="clip0_58_4680">
        <rect width="32" height="32" fill="currentColor"></rect>
      </clipPath>
    </defs>
  </symbol>
    <symbol fill="none" xmlns="http://www.w3.org/2000/svg" viewBox="0 0 16 15" id="rating-star">
    <path d="M8 0L9.79611 5.52786H15.6085L10.9062 8.94427L12.7023 14.4721L8 11.0557L3.29772 14.4721L5.09383 8.94427L0.391548 5.52786H6.20389L8 0Z" fill="#0F73F6"></path>
  </symbol>
    <symbol fill="none" xmlns="http://www.w3.org/2000/svg" viewBox="0 0 24 24" id="plus-icon">
    <path d="M19 11H13V5C13 4.73478 12.8946 4.48043 12.7071 4.29289C12.5196 4.10536 12.2652 4 12 4C11.7348 4 11.4804 4.10536 11.2929 4.29289C11.1054 4.48043 11 4.73478 11 5V11H5C4.73478 11 4.48043 11.1054 4.29289 11.2929C4.10536 11.4804 4 11.7348 4 12C4 12.2652 4.10536 12.5196 4.29289 12.7071C4.48043 12.8946 4.73478 13 5 13H11V19C11 19.2652 11.1054 19.5196 11.2929 19.7071C11.4804 19.8946 11.7348 20 12 20C12.2652 20 12.5196 19.8946 12.7071 19.7071C12.8946 19.5196 13 19.2652 13 19V13H19C19.2652 13 19.5196 12.8946 19.7071 12.7071C19.8946 12.5196 20 12.2652 20 12C20 11.7348 19.8946 11.4804 19.7071 11.2929C19.5196 11.1054 19.2652 11 19 11Z" fill="currentColor"></path>
  </symbol>
  <symbol fill="none" xmlns="http://www.w3.org/2000/svg" viewBox="0 0 24 24" id="minus-icon">
    <path d="M23.13 12.8699H0.87C0.39 12.8699 0 12.4799 0 11.9999C0 11.5199 0.39 11.1299 0.87 11.1299H23.13C23.61 11.1299 24 11.5199 24 11.9999C24 12.4799 23.61 12.8699 23.13 12.8699Z" fill="currentColor"></path>
  </symbol>
    <symbol fill="none" xmlns="http://www.w3.org/2000/svg" viewBox="0 0 24 24" id="searchbar-lens">
    <path d="M21.7556 20.5773L16.0682 14.8899C17.1699 13.5291 17.8332 11.7999 17.8332 9.9166C17.8332 5.55164 14.2815 2 9.91656 2C5.55161 2 2 5.55161 2 9.91656C2 14.2815 5.55165 17.8332 9.9166 17.8332C11.7999 17.8332 13.5291 17.1699 14.8899 16.0682L20.5773 21.7556C20.7398 21.9181 20.9531 21.9998 21.1665 21.9998C21.3798 21.9998 21.5932 21.9181 21.7557 21.7556C22.0815 21.4298 22.0815 20.9031 21.7556 20.5773ZM9.9166 16.1665C6.46996 16.1665 3.66666 13.3632 3.66666 9.91656C3.66666 6.46992 6.46996 3.66662 9.9166 3.66662C13.3632 3.66662 16.1665 6.46992 16.1665 9.91656C16.1665 13.3632 13.3632 16.1665 9.9166 16.1665Z" fill="currentColor"></path>
  </symbol>
    <symbol fill="none" xmlns="http://www.w3.org/2000/svg" viewBox="0 0 24 24" id="x">
    <path d="M3.18175 20.3175C3.23979 20.3756 3.30872 20.4217 3.3846 20.4532C3.46047 20.4846 3.5418 20.5008 3.62393 20.5008C3.70607 20.5008 3.7874 20.4846 3.86327 20.4532C3.93914 20.4217 4.00807 20.3756 4.06612 20.3175L11.7474 12.6363L19.4317 20.3175C19.549 20.4348 19.7081 20.5007 19.8739 20.5007C20.0398 20.5007 20.1988 20.4348 20.3161 20.3175C20.4334 20.2003 20.4993 20.0412 20.4993 19.8753C20.4993 19.7095 20.4334 19.5504 20.3161 19.4332L12.6317 11.7519L20.313 4.06753C20.4303 3.95026 20.4962 3.7912 20.4962 3.62535C20.4962 3.4595 20.4303 3.30044 20.313 3.18316C20.1957 3.06588 20.0367 3 19.8708 3C19.705 3 19.5459 3.06588 19.4286 3.18316L11.7474 10.8675L4.063 3.18629C3.94343 3.08389 3.78963 3.03039 3.63234 3.03647C3.47504 3.04254 3.32583 3.10775 3.21452 3.21906C3.10321 3.33037 3.038 3.47958 3.03193 3.63688C3.02585 3.79417 3.07935 3.94797 3.18175 4.06753L10.863 11.7519L3.18175 19.4363C3.06534 19.5534 3 19.7118 3 19.8769C3 20.042 3.06534 20.2004 3.18175 20.3175Z" fill="currentColor"></path>
  </symbol>
    <symbol fill="none" xmlns="http://www.w3.org/2000/svg" viewBox="0 0 24 24" id="grid-style">
    <path d="M2.25 2.25V21.75H21.75V2.25H2.25ZM20.25 11.25H12.75V3.75H20.25V11.25ZM11.25 3.75V11.25H3.75V3.75H11.25ZM3.75 12.75H11.25V20.25H3.75V12.75ZM12.75 20.25V12.75H20.25V20.25H12.75Z" fill="currentColor"></path>
  </symbol>
  <symbol fill="none" xmlns="http://www.w3.org/2000/svg" viewBox="0 0 24 24" id="list-style">
    <path d="M1.5 4.5H22.5V6H1.5V4.5Z" fill="currentColor"></path>
    <path d="M1.5 11.25H22.5V12.75H1.5V11.25Z" fill="currentColor"></path>
    <path d="M1.5 18H22.5V19.5H1.5V18Z" fill="currentColor"></path>
  </symbol>
  <symbol fill="none" xmlns="http://www.w3.org/2000/svg" viewBox="0 0 24 24" id="phone">
    <g clip-path="url(#clip0_64_6133)">
      <path d="M20.6789 16.7041C19.2291 15.4641 17.7577 14.713 16.3257 15.9511L15.4706 16.6995C14.8449 17.2427 13.6817 19.7808 9.1842 14.6071C4.68766 9.43998 7.36348 8.63546 7.99006 8.09692L8.84984 7.34765C10.2744 6.10667 9.73679 4.54445 8.70936 2.93633L8.08934 1.96228C7.05722 0.357912 5.93332 -0.695747 4.50502 0.543356L3.73328 1.2177C3.10202 1.67756 1.33749 3.17235 0.909472 6.01208C0.39435 9.41938 2.01933 13.3212 5.74225 17.6023C9.4605 21.8853 13.101 24.0367 16.5495 23.9992C19.4155 23.9683 21.1463 22.4304 21.6876 21.8713L22.4622 21.196C23.8867 19.9578 23.0016 18.6972 21.5509 17.4543L20.6789 16.7041Z" fill="#0F73F6"></path>
    </g>
    <defs>
      <clipPath id="clip0_64_6133">
        <rect width="24" height="24" fill="white"></rect>
      </clipPath>
    </defs>
  </symbol>
  <symbol fill="none" xmlns="http://www.w3.org/2000/svg" viewBox="0 0 24 24" id="pin">
    <path d="M12 0C7.58889 0 4 3.58889 4 8.00002C4 9.32423 4.33108 10.6372 4.96047 11.8018L11.5625 23.7422C11.6504 23.9014 11.8179 24 12 24C12.1821 24 12.3496 23.9014 12.4375 23.7422L19.042 11.7978C19.669 10.6372 20 9.32419 20 7.99997C20 3.58889 16.4111 0 12 0ZM12 12C9.79445 12 8.00003 10.2056 8.00003 8.00002C8.00003 5.79445 9.79445 4.00003 12 4.00003C14.2056 4.00003 16 5.79445 16 8.00002C16 10.2056 14.2056 12 12 12Z" fill="#0F73F6"></path>
  </symbol>
  <symbol fill="none" xmlns="http://www.w3.org/2000/svg" viewBox="0 0 24 24" id="mail">
    <g clip-path="url(#clip0_64_6128)">
      <path d="M14.0057 14.7041C13.4086 15.1021 12.7151 15.3126 12 15.3126C11.285 15.3126 10.5914 15.1021 9.99431 14.7041L0.159797 8.14752C0.105234 8.11115 0.0520781 8.07323 0 8.03423V18.7778C0 20.0096 0.999609 20.9872 2.20936 20.9872H21.7906C23.0224 20.9872 24 19.9876 24 18.7778V8.03418C23.9478 8.07327 23.8945 8.11129 23.8398 8.14771L14.0057 14.7041Z" fill="#0F73F6"></path>
      <path d="M0.939844 6.97795L10.7744 13.5345C11.1466 13.7827 11.5733 13.9068 12 13.9068C12.4267 13.9068 12.8534 13.7827 13.2256 13.5345L23.0602 6.97795C23.6487 6.58584 24 5.92959 24 5.2213C24 4.00345 23.0092 3.0127 21.7914 3.0127H2.20861C0.990797 3.01274 0 4.00349 0 5.22248C0 5.92959 0.351375 6.58584 0.939844 6.97795Z" fill="#0F73F6"></path>
    </g>
    <defs>
      <clipPath id="clip0_64_6128">
        <rect width="24" height="24" fill="white"></rect>
      </clipPath>
    </defs>
  </symbol>
    <symbol fill="none" xmlns="http://www.w3.org/2000/svg" viewBox="0 0 24 24" id="clock">
    <path d="M12 1C9.82441 1 7.69767 1.64514 5.88873 2.85383C4.07979 4.06253 2.66989 5.78049 1.83733 7.79048C1.00477 9.80047 0.786929 12.0122 1.21137 14.146C1.6358 16.2798 2.68345 18.2398 4.22183 19.7782C5.76021 21.3166 7.72022 22.3642 9.85401 22.7886C11.9878 23.2131 14.1995 22.9952 16.2095 22.1627C18.2195 21.3301 19.9375 19.9202 21.1462 18.1113C22.3549 16.3023 23 14.1756 23 12C22.9966 9.08367 21.8365 6.28778 19.7744 4.22563C17.7122 2.16347 14.9163 1.00344 12 1ZM15.707 15.707C15.5195 15.8945 15.2652 15.9998 15 15.9998C14.7348 15.9998 14.4805 15.8945 14.293 15.707L11.293 12.707C11.1055 12.5195 11.0001 12.2652 11 12V6C11 5.73478 11.1054 5.48043 11.2929 5.29289C11.4804 5.10536 11.7348 5 12 5C12.2652 5 12.5196 5.10536 12.7071 5.29289C12.8946 5.48043 13 5.73478 13 6V11.586L15.707 14.293C15.8945 14.4805 15.9998 14.7348 15.9998 15C15.9998 15.2652 15.8945 15.5195 15.707 15.707Z" fill="#0F73F6"></path>
  </symbol>
</svg>

